<?xml version="1.0" standalone="no"?>
<!DOCTYPE svg PUBLIC "-//W3C//DTD SVG 1.1//EN" "http://www.w3.org/Graphics/SVG/1.1/DTD/svg11.dtd" >
<svg>
<metadata>
Created by FontForge 20090622 at Tue Jan 24 16:23:55 2017
 By deploy user
Copyright (c) 2010 by Marco M&#194;&#159;ller. All rights reserved.
</metadata>
<defs>
<font id="Melbourne" horiz-adv-x="460" >
  <font-face 
    font-family="Melbourne"
    font-weight="400"
    font-stretch="normal"
    units-per-em="1000"
    panose-1="2 0 0 0 0 0 0 0 0 0"
    ascent="750"
    descent="-250"
    x-height="500"
    cap-height="700"
    bbox="-181 -212 835 865.267"
    underline-thickness="50"
    underline-position="-50"
    unicode-range="U+0020-U+2212"
  />
<missing-glyph horiz-adv-x="210" 
 />
    <glyph glyph-name=".notdef" horiz-adv-x="210" 
 />
    <glyph glyph-name=".null" horiz-adv-x="0" 
 />
    <glyph glyph-name="nonmarkingreturn" horiz-adv-x="333" 
 />
    <glyph glyph-name="space" unicode=" " horiz-adv-x="210" 
 />
    <glyph glyph-name="exclam" unicode="!" horiz-adv-x="206" 
d="M73 168v522q0 9 9 10h39q10 0 10 -10v-522q0 -9 -10 -10h-39q-9 0 -9 10zM141 70v-60q0 -9 -9 -10h-57q-10 0 -10 10v60q0 9 9 10h57q10 0 10 -10z" />
    <glyph glyph-name="quotedbl" unicode="&#x22;" horiz-adv-x="271" 
d="M85 575h-19q-9 0 -10 10l-13 145q0 9 9 10h45q10 0 10 -10l-12 -145q-1 -9 -10 -10zM194 575h-19q-9 0 -10 10l-13 145q0 9 9 10h45q10 0 10 -10l-12 -145q-1 -9 -10 -10z" />
    <glyph glyph-name="numbersign" unicode="#" horiz-adv-x="638" 
d="M373 182l38 160h-157l-37 -160h156zM419 127l-33 -135q-1 -8 -10 -8h-42q-10 0 -7 10l34 133h-156l-33 -135q-1 -8 -10 -8h-42q-9 0 -7 10l33 133h-116q-10 -1 -8 9l9 38q3 8 10 8h117l38 160h-137q-10 -1 -8 9l9 37q3 8 10 8h139l34 143q1 8 10 8h42h4t3 -2t-1 -7
l-34 -142h156l34 143q3 8 10 8h42q10 0 7 -10l-34 -141l127 1q11 0 8 -9l-9 -38q-3 -8 -11 -8h-127l-38 -160h148q11 0 8 -9l-9 -38q-3 -8 -11 -8h-149z" />
    <glyph glyph-name="dollar" unicode="$" horiz-adv-x="485" 
d="M269 -7v-70q0 -9 -9 -10h-38q-10 0 -10 10v70q-68 9 -118 56.5t-50 139.5q0 9 10 10h42q9 0 9 -10q0 -122 107 -138v291l-62 32q-98 50 -98 165q0 70 45 114t115 52v66q0 9 9 10h38q10 0 10 -10v-65q74 -7 114 -50.5t50 -109.5q2 -10 -6 -13l-39 -10q-12 -4 -14 7
q-11 101 -105 114v-265l81 -43q44 -23 67.5 -64t23.5 -90q0 -76 -46 -129t-126 -60zM380 182q0 74 -77 114l-34 17v-262q55 8 83 47t28 84zM113 536q0 -73 55 -104l44 -25v237q-51 -8 -75 -39t-24 -69z" />
    <glyph glyph-name="percent" unicode="%" horiz-adv-x="585" 
d="M462 690l-230 -682q-3 -8 -10 -8h-42q-10 0 -7 10l230 682q3 8 10 8h42q10 0 7 -10zM165 685q-54 0 -80.5 -34t-26.5 -92v-80q0 -56 28.5 -91t78.5 -35q49 0 77.5 35t28.5 91v80q0 58 -26.5 92t-79.5 34zM165 405q-25 0 -41 20.5t-16 60.5v66q0 40 16 61.5t41 21.5
t40.5 -21.5t15.5 -61.5v-66q0 -40 -15.5 -60.5t-40.5 -20.5zM461 332q-54 0 -80.5 -34t-26.5 -92v-80q0 -56 28.5 -91t78.5 -35q49 0 77.5 35t28.5 91v80q0 58 -26.5 92t-79.5 34zM461 52q-25 0 -41 20.5t-16 60.5v66q0 40 16 61.5t41 21.5t40.5 -21t15.5 -62v-66
q0 -40 -15.5 -60.5t-40.5 -20.5z" />
    <glyph glyph-name="ampersand" unicode="&#x26;" horiz-adv-x="590" 
d="M156 292q-38 -35 -51.5 -59t-13.5 -69q0 -46 36 -81t90 -35q25 0 46.5 14t51.5 49l23 27l-128 202zM109 323l71 63l-22 37q-33 59 -22.5 108t51.5 80.5t93 31.5q60 0 101.5 -34.5t41.5 -105.5q0 -10 -10 -10h-38q-9 0 -9 10q0 84 -84 84q-56 0 -80.5 -41t11.5 -103
l170 -265q16 16 24.5 23.5t24 15t31.5 7.5h21q11 0 11 -10v-34q0 -11 -10 -11h-15q-31 -1 -57 -38q33 -49 47.5 -62.5t37.5 -13.5h18q10 0 10 -10v-34q0 -11 -10 -11h-22q-37 0 -61 18.5t-59 71.5l-23 -26q-35 -39 -63.5 -55t-71.5 -16q-83 0 -131 50.5t-48 120.5
q0 96 72 159z" />
    <glyph glyph-name="parenleft" unicode="(" horiz-adv-x="297" 
d="M111 423v-136q0 -163 39 -260.5t88 -136.5q10 -8 2 -16l-25 -25q-8 -8 -16 -1q-64 53 -106.5 164t-42.5 285v116q0 174 42.5 285t106.5 164q8 7 16 -1l25 -25q8 -8 -2 -16q-49 -39 -88 -136.5t-39 -260.5z" />
    <glyph glyph-name="parenright" unicode=")" horiz-adv-x="348" 
d="M194 287v136q0 163 -39 260.5t-88 136.5q-10 8 -2 16l25 25q8 8 16 1q64 -53 106.5 -164t42.5 -285v-116q0 -174 -42.5 -285t-106.5 -164q-8 -7 -16 1l-25 25q-8 8 2 16q49 39 88 136.5t39 260.5z" />
    <glyph glyph-name="asterisk" unicode="*" horiz-adv-x="293" 
d="M145 608l-51 -58q-3 -4 -6.5 -4.5t-5.5 0.5l-1 1l-18 13q-1 1 -1.5 2t-1.5 5t1 8l33 66l-67 36q-4 2 -5.5 4.5t-1.5 4.5l1 2l6 21q0 1 1 2t5 3t8 2l72 -11l12 74q1 5 3.5 7.5t4.5 2.5h2h22q8 0 10 -10l12 -74l74 11q5 1 8.5 -0.5t4.5 -3.5v-2l7 -21q2 -8 -7 -13l-66 -34
l32 -67q2 -5 2 -8.5t-2 -4.5l-1 -1l-18 -13q-7 -4 -15 3z" />
    <glyph glyph-name="plus" unicode="+" horiz-adv-x="314" 
d="M128 296v115q0 9 9 10h39q10 0 10 -10v-115h109q9 0 10 -9v-37q0 -10 -10 -10h-109v-115q0 -9 -9 -10h-39q-10 0 -10 10v115h-109q-9 0 -10 9v37q0 10 10 10h109z" />
    <glyph glyph-name="comma" unicode="," horiz-adv-x="185" 
d="M136 66l-30 -161q-2 -9 -9 -10h-27q-10 0 -10 10v165q0 9 9 10h57q14 0 10 -14z" />
    <glyph glyph-name="period" unicode="." horiz-adv-x="169" 
d="M120 70v-60q0 -9 -9 -10h-57q-10 0 -10 10v60q0 9 9 10h57q10 0 10 -10z" />
    <glyph glyph-name="slash" unicode="/" horiz-adv-x="328" 
d="M321 725l-254 -752q-3 -8 -10 -8h-42q-10 0 -7 10l254 752q3 8 10 8h42q10 0 7 -10z" />
    <glyph glyph-name="zero" unicode="0" horiz-adv-x="474" 
d="M237 707q89 0 133 -56.5t44 -152.5v-295q0 -93 -47.5 -151.5t-129.5 -58.5t-129.5 58.5t-47.5 151.5v295q0 96 44 152.5t133 56.5zM237 51q53 0 84.5 36.5t31.5 115.5v295q0 151 -116 151t-116 -151v-295q0 -79 31.5 -115.5t84.5 -36.5z" />
    <glyph glyph-name="one" unicode="1" horiz-adv-x="421" 
d="M376 0h-331q-9 0 -10 10v39q0 9 11 9h134v584h-79q-9 0 -10 10v39q0 9 11 9h129q10 0 10 -10v-632h134q5 0 7.5 -2t3.5 -4v-3v-39q0 -10 -10 -10z" />
    <glyph glyph-name="two" unicode="2" horiz-adv-x="441" 
d="M212 707q93 0 137 -55.5t44 -136.5q0 -109 -74 -202l-183 -255h250q9 0 10 -9v-40q0 -9 -9 -9h-319q-4 0 -6 2t-2 4l-1 3v39q0 10 9 21l192 267q44 56 58 93t14 86q0 60 -30 97t-91 37q-105 0 -105 -116q0 -5 -2.5 -8t-5.5 -3l-2 -1h-42q-9 0 -9 12q0 77 44.5 125.5
t122.5 48.5z" />
    <glyph glyph-name="three" unicode="3" horiz-adv-x="462" 
d="M61 532q0 82 45 128.5t120 46.5q82 0 124.5 -49.5t42.5 -135.5q0 -147 -78 -163q29 -12 47.5 -32.5t26.5 -46t10.5 -45.5t2.5 -46q0 -92 -46.5 -144t-130.5 -52q-49 0 -85.5 18.5t-54.5 48.5t-26.5 59.5t-8.5 59.5q0 9 9 10h42q10 0 10 -10q0 -62 30 -95t84 -33
q55 0 85.5 30t30.5 108q0 74 -29.5 108.5t-70.5 34.5h-23q-9 0 -10 10v38q0 9 10 9h24q90 0 90 133q0 127 -106 127q-54 0 -79 -28.5t-25 -88.5q0 -9 -10 -10h-42q-9 0 -9 10z" />
    <glyph glyph-name="four" unicode="4" horiz-adv-x="465" 
d="M274 642l-184 -405v-12h193v417h-9zM33 253l204 437q3 4 6 6.5t5 3.5h2h84q10 0 10 -10v-465h61q9 0 10 -9v-39q0 -10 -11 -10h-60v-157q0 -9 -9 -10h-42q-10 0 -10 10v157h-248q-10 2 -10 12v47q0 11 8 27z" />
    <glyph glyph-name="five" unicode="5" horiz-adv-x="447" 
d="M101 419q26 43 119 43q86 0 131.5 -56t45.5 -139v-64q0 -93 -47.5 -151t-129.5 -58q-84 0 -132 53t-48 148q0 9 9 10h42q10 0 10 -10q0 -81 29.5 -112t89.5 -31q116 0 116 151v62q0 139 -116 139q-50 0 -84.5 -17.5t-34.5 -55.5q0 -9 -10 -10h-42q-9 0 -9 10v359
q0 9 9 10h301q9 0 10 -9v-39q0 -10 -10 -10h-249v-223z" />
    <glyph glyph-name="six" unicode="6" horiz-adv-x="477" 
d="M121 498v-118q31 52 122 52q85 0 129.5 -55.5t44.5 -139.5v-34q0 -95 -47.5 -152.5t-136.5 -57.5q-81 0 -127 58.5t-46 151.5v295q0 101 49.5 155t130.5 54q82 0 129.5 -52.5t47.5 -130.5q0 -5 -2.5 -8t-4.5 -4h-2h-42q-10 0 -10 12q0 63 -32 94t-84 31q-55 0 -87 -33.5
t-32 -117.5zM121 235v-32q0 -79 31 -115.5t81 -36.5q60 0 91.5 35.5t31.5 116.5v32q0 139 -112 139q-123 0 -123 -139z" />
    <glyph glyph-name="seven" unicode="7" horiz-adv-x="403" 
d="M72 10l187 441q38 89 39 92q21 50 21 99h-274q-9 0 -10 9v40q0 9 9 9v0v0v0v0v0v0v0v0v0v0v0v0v0v0v0v0v0v0v0v0v0v0v0v0v0v0v0v0v0v0v0v0v0v0v0v0v0v0v0v0h1v0v0v0v0v0v0h1v0v0v0v0h1v0v0v0v0h1v0v0v0h1v0v0v0h1v0v0h1v0v0h1v0v0h1v0v0h1v0v0h1v0h1v0h1v0h1v0h1v0h1v0h1
v0h1v0h1v0h1v0h1v0h1v0h1v0h1v0h1v0h1v0h1v0h1v0h1h1v0h1v0h1h1v0h1h1v0h1h1v0h1h1v0h1h1h1h1v0h1h1h1h1h1v0h1h1h1h1h1h1h1h1h1h1h1h1h1h1h1h1h1h1h1h1h1h1h1h1h1h1h1h1h1h1h1h1h1h1h1h1h1h1h1h1h1h1h1h1h1h1h1h1h1h1h1h1h1h1h1h1h1h1h1h1h1h1h1h1h1h1h1h1h1h1h1h1h1h1h1h1
h1h1h1h1h1h1h1h1h1h1h1h1h1h1h1h1h1h1h1h1h1h1h1h1h1h1h1h1h1h1h1h1h1h1h1h1h1h1h1h1h1h1h1h1h1h1h1h1h1h1h1h1h1h1h1h1h1h1h1h1h1h1h1h1h1h1h1h1h1h1h1h1h1h1h1h1h1h1h1h1h1h1h1h1h1h1h1h1h1h1h1h1h1h1h1h1h1h1h1h1h1h1h1h1h1h1h1h1h1h1h1h1h1h1h1h1h1h1h1h1h1h1h1h1h1h1h1
h1h1h1h1h1h1h1h1h1h1h1h1h1h1h1h1h1h1h1h1h1h1h1h1h1h1h1h1h1h1h1h1h1h1h1h1h1h1h1h1h1h1h1h1h1h1h1h1h1h1h1h1h1h1h1h1h1h1h1h1h1h1h1h1h1h1h1h10q4 0 6 -2t2 -4l1 -3v-51q0 -54 -30 -122l-214 -508q-5 -10 -13 -10h-45q-12 0 -7 10z" />
    <glyph glyph-name="eight" unicode="8" 
d="M225 399q104 0 104 128q0 70 -27.5 96t-76.5 26q-105 0 -105 -122q0 -128 105 -128zM225 51q52 0 83 34t31 104q0 77 -31 115t-83 38t-83 -38t-31 -115q0 -70 31 -104t83 -34zM390 527q0 -115 -77 -158q87 -38 87 -180q0 -30 -8.5 -61t-27.5 -63t-55 -52t-84 -20t-84 20
t-55 52t-27.5 63t-8.5 61q0 142 87 180q-41 21 -59.5 65.5t-18.5 92.5q0 31 7 59t23.5 57t51.5 46.5t84 17.5q40 0 70.5 -12t48 -30.5t28.5 -43.5t14.5 -47.5t3.5 -46.5z" />
    <glyph glyph-name="nine" unicode="9" 
d="M231 707q82 0 130.5 -58.5t48.5 -150.5v-295q0 -96 -48 -153t-132 -57q-81 0 -129 52.5t-48 131.5q0 5 2.5 8t4.5 3l2 1h42q10 0 10 -12q0 -63 32 -94.5t84 -31.5q57 0 88 39t31 113v120q-36 -54 -117 -54q-86 0 -134 56t-48 139v34q0 95 46 152t135 57zM232 327
q55 0 86 35t31 100v36q0 151 -118 151q-59 0 -89.5 -35t-30.5 -116v-32q0 -70 31.5 -104.5t89.5 -34.5z" />
    <glyph glyph-name="colon" unicode=":" horiz-adv-x="176" 
d="M126 70v-60q0 -9 -9 -10h-57q-10 0 -10 10v60q0 9 9 10h57q10 0 10 -10zM126 377v-60q0 -9 -9 -10h-57q-10 0 -10 10v60q0 9 9 10h57q10 0 10 -10z" />
    <glyph glyph-name="semicolon" unicode=";" horiz-adv-x="184" 
d="M134 377v-60q0 -9 -9 -10h-57q-10 0 -10 10v60q0 9 9 10h57q10 0 10 -10zM134 66l-30 -161q-2 -9 -9 -10h-27q-10 0 -10 10v165q0 9 9 10h57q14 0 10 -14z" />
    <glyph glyph-name="less" unicode="&#x3c;" horiz-adv-x="326" 
d="M10 253v0v1v1v1v1v1v1v1v1v1v2v1v1v2v1v2v1v2v2v9q0 8 10 14l251 159q5 2 7 1t2 -4l1 -3v-48q0 -9 -10 -14l-205 -121l205 -121q3 -1 5 -3t3 -4t1.5 -3.5t0.5 -2.5v-1v-48q0 -1 -0.5 -2.5t-2.5 -4.5t-7 1l-251 159q-10 7 -10 14z" />
    <glyph glyph-name="equal" unicode="=" horiz-adv-x="485" 
d="M410 169h-335q-9 0 -10 9v37q0 10 10 10h335q9 0 10 -9v-37q0 -10 -10 -10zM410 310h-335q-9 0 -10 9v37q0 10 10 10h335q9 0 10 -9v-37q0 -10 -10 -10z" />
    <glyph glyph-name="greater" unicode="&#x3e;" horiz-adv-x="326" 
d="M316 253q0 -7 -10 -14l-251 -159q-5 -2 -7 -1t-2 4l-1 3v48q0 9 10 14l205 121l-205 121q-3 1 -5 3t-3 4t-1.5 3.5t-0.5 2.5v1v48q0 1 0.5 2.5t2.5 4.5t7 -1l251 -159q3 -2 5 -4t3 -3.5t1.5 -3t0.5 -2.5v-1v0v-1v-1v-1v-1v-1v-1v-1v-1v-1v-1v-2v-1v-2v-1v-2v-1v-2v-1v-10
z" />
    <glyph glyph-name="question" unicode="?" horiz-adv-x="374" 
d="M67 561q0 -5 -2.5 -8t-4.5 -3l-3 -1h-38q-9 0 -9 12q6 146 161 146q81 0 122 -48t41 -124q0 -34 -12 -64.5t-24 -46.5t-42 -50q-55 -64 -55 -95v-111q0 -9 -9 -10h-42q-10 0 -10 10v103q0 38 18 69t53 71q2 2 12.5 14t14.5 17t12.5 17.5t12 22t7 24t3.5 29.5q0 52 -25 83
t-79 31q-102 0 -102 -88zM210 70v-60q0 -9 -9 -10h-57q-10 0 -10 10v60q0 9 9 10h57q10 0 10 -10z" />
    <glyph glyph-name="at" unicode="@" horiz-adv-x="704" 
d="M835 450l-102 -116l102 -52l-7 -2l-494 -140l-12 -3v0v173l40 44l-136 -39l1 -83q0 -22 -22 -22h-29q-2 0 -6 0.5t-10 6t-6 15.5v62l-70 -19l-13 -4v1l-1 -1v13v155l47 51l-286 -81l-12 -3l103 115l-103 53l7 2l328 93v51q0 2 0.5 5.5t6 9.5t15.5 6h45q15 0 23 -16
l12 -27l64 18l12 3v-168v-5l-8 -9l5 -11l84 199q4 7 10 11t10 4l4 1h43q23 0 23 -21v-158l69 19l12 4v-13v-148v-8l-47 -50l286 81zM543 387v18l-5 -2v-22zM553 397v10l-6 -1v-14zM557 401l8 10l-8 -3v-7zM437 607l-29 -72l28 8zM322 695l-5 -5v-149l4 5l1 1v1v10v137z
M267 636l-6 -6v-137l6 2v141zM270 640v-144l6 1v148zM280 650v-149l5 6v149zM289 660v-149l5 6v148zM298 670v-149l6 6v149zM308 679v-148l5 6v148zM319 705l-60 -16l14 -32zM257 626l-5 -6v-129l5 1v134zM248 616l-6 -6v-122l6 1v127zM239 606l-6 -6v-115l6 2v119zM229 595
l-2 -2l-3 -3v-108l5 2v111zM223 603l-3 8v-11zM127 486l-5 -6v-27l5 2v31zM131 490v-34l5 2v38zM140 500v-41l6 1v46zM149 510v-48l5 1v37v11v3zM118 476l-6 -6v-19l6 2v23zM103 448l5 2v16l-5 -6v-12zM99 456l-11 -12l11 3v9zM225 325l150 42l15 4l43 13l70 20l72 20v148
l-15 -4l-57 -16l-67 -20l-32 -9l-125 -35l-8 -2l-7 -2l-110 -31l-73 -21v-146v-2l13 4l60 17zM534 402l-6 -1v-29l6 5v25zM525 399l-6 -1v-37l6 6v32zM515 397l-5 -2v-43l5 5v40zM506 394l-3 -1v-37v-10v-2l2 2l1 1v47zM432 373l-6 -1v-110l4 4l1 60l1 10v4v33zM422 370
l-5 -1v-117l5 6v112zM413 368l-5 -2v-124l5 6v120zM404 365l-6 -1v-132l6 6v127zM395 363l-6 -2v-139l6 5v136zM385 360l-5 -2v-146l5 6v142zM376 356l-6 -6v-148l6 6v148zM361 340v-148l5 6v148zM352 330v-148l5 6v148zM343 320v-148l5 6v148zM332 161l7 7v148l-7 -8v-147z
M805 283l-87 48l88 101l-282 -80l-21 -23v-97q0 -2 -0.5 -6t-6.5 -10t-16 -6h-28q-2 0 -6 0.5t-10 6t-6 15.5v19l-95 -101zM32 82q1 0 1 -1l6 -12l5 12l1 1h3q1 0 1 -2v-29q0 -1 -1 -1h-2q-1 0 -1 1v23l-4 -11l-1 -1h-2q-1 0 -2 1l-4 11l1 -23q0 -1 -2 -1h-2q-1 0 -1 1v29
q0 2 1 2h3zM67 82q1 0 1 -1l8 -30l-1 -1h-2q-1 0 -1 1l-2 8h-10l-2 -8q0 -1 -2 -1h-2q-1 0 -1 1l9 30l1 1h4zM65 77l-4 -13h8zM89 82q10 0 10 -10q0 -6 -5 -9l3 -7l2 -2h1l1 -1v-2q0 -1 -1 -1h-1q-3 0 -6 4l-4 8h-3v-11l-1 -1h-3q-1 0 -1 1v31h8zM86 67h3q5 0 5 5t-5 5h-3
v-10zM123 74q0 -1 -1 -1l-1 -1l-2 1q0 5 -5 5t-5 -6v-12q0 -6 5 -6t5 6l1 1h2q1 0 1 -1q0 -11 -9 -11q-10 0 -10 11v12q0 10 10 10q9 0 9 -8zM148 72v-12q0 -11 -10 -11q-9 0 -9 11v12q0 10 9 10q10 0 10 -10zM133 72v-12q0 -6 5 -6t5 6v12q0 6 -5 6t-5 -6zM152 58v8
q0 14 15 14q14 0 14 -14v-4q0 -14 -12 -14q-10 0 -10 8q0 6 6 7l5 1v2q0 3 -3 3t-3 -2l-1 -2h-2q-1 0 -1 2q0 6 7 6t7 -8v-8q0 -2 -1 -2h-2q-1 1 -1 2v3l-5 -1q-2 0 -2 -3t7 -3t7 9v4q0 10 -10 10t-10 -11v-7q0 -9 9 -12l1 -1v-2q0 -1 -2 -1q-13 3 -13 16zM201 82l2 -2v-1
q0 -2 -2 -2h-10v-9h7l2 -1v-2q0 -1 -2 -1h-7v-13l-2 -1h-2q-1 0 -1 1v31h15zM225 72v-12q0 -11 -10 -11q-9 0 -9 11v12q0 10 9 10q10 0 10 -10zM210 72v-12q0 -6 5 -6q6 0 6 6v12q0 6 -6 6q-5 0 -5 -6zM239 82q10 0 10 -10q0 -6 -6 -9l4 -7q0 -2 2 -2h1l1 -1v-2q0 -1 -1 -1
h-1q-4 0 -7 4l-3 8h-3v-11l-2 -1h-1q-2 0 -2 1v31h8zM236 67h3q5 0 5 5t-5 5h-3v-10zM272 82l2 -2v-1q0 -2 -1 -2h-12v-9h8l2 -1v-2q0 -1 -2 -1h-8v-10h11l2 -1v-2q0 -1 -1 -1h-17v32h16zM281 82l1 -1l6 -26h1l6 26l1 1h2l1 -2l-7 -29l-1 -1h-4q-2 0 -2 1l-7 29l1 2h2z
M320 82l2 -2v-1q0 -2 -2 -2h-12v-9h9l2 -1v-2q0 -1 -2 -1h-9v-10h12l2 -1v-2q0 -1 -2 -1h-16v32h16zM335 82q10 0 10 -10q0 -6 -5 -9l3 -7l2 -2h1l1 -1v-2q0 -1 -1 -1h-1q-5 0 -6 4l-4 8h-3v-11l-1 -1h-3q-1 0 -1 1v31h8zM332 67h3q5 0 5 5t-5 5h-3v-10zM363 82q1 0 1 -1
l9 -30l-1 -1h-3l-1 1l-2 8h-10l-2 -8l-1 -1h-2q-2 0 -2 1l9 30l1 1h4zM361 77l-4 -13h8zM382 82q1 0 1 -1l10 -23l-1 22q0 2 2 2h2q1 0 1 -2v-29q0 -1 -1 -1h-3q-1 0 -1 1l-10 23v-23q0 -1 -1 -1h-2q-1 0 -1 1v29q0 2 1 2h3zM413 82q9 0 9 -11v-11q0 -10 -9 -10h-9v32h9z
M408 54h5q5 0 5 6v11q0 6 -5 6h-5v-23zM447 74q0 -1 -1 -1l-2 -1q-1 1 -2 1q0 5 -4 5q-5 0 -5 -6v-12q0 -6 5 -6t5 6l1 1h2q1 0 1 -1q0 -11 -9 -11q-10 0 -10 11v12q0 10 10 10q7 0 9 -8zM471 72v-12q0 -11 -9 -11q-10 0 -10 11v12q0 10 10 10q9 0 9 -10zM456 72v-12
q0 -6 6 -6q5 0 5 6v12q0 6 -5 6q-6 0 -6 -6zM480 82q1 0 1 -2v-19q0 -7 5 -7t5 7v19l2 2h1q2 0 2 -2v-19q0 -12 -10 -12q-9 0 -9 12v19l1 2h2zM506 82q1 0 1 -1l10 -23v22q0 2 1 2h2q1 0 1 -2v-29q0 -1 -1 -1h-3q-1 0 -2 1l-9 23v-23q0 -1 -1 -1h-2q-1 0 -1 1v29q0 2 1 2h3z
M544 82l1 -2v-1q0 -2 -1 -2h-6v-26l-2 -1h-2q-1 0 -1 1v26h-6l-1 2v1q0 2 1 2h17zM553 82q1 0 1 -2v-29l-1 -1h-2q-1 0 -1 1v29l1 2h2zM564 82q1 0 2 -1l9 -23v22q0 2 1 2h2q1 0 1 -2v-29q0 -1 -1 -1h-3q-1 0 -1 1l-10 23v-23q0 -1 -1 -1h-2q-1 0 -1 1v29q0 2 1 2h3zM604 74
q0 -1 -1 -1l-2 -1q-1 0 -1 0.5t-1 0.5q0 5 -4 5q-5 0 -5 -6v-12q0 -6 5 -6t5 6v2h-5l-1 1v2q0 1 1 1h8q1 0 1 -1v-5q0 -11 -9 -11q-10 0 -10 11v12q0 10 10 10q7 0 9 -8zM612 54q1 0 1 -1v-2l-1 -1h-3q-1 0 -1 1v2l1 1h3zM636 74q0 -1 -1 -1l-1 -1l-2 1q0 5 -5 5t-5 -6v-12
q0 -6 5 -6t5 6l1 1h2q1 0 1 -1q0 -11 -9 -11q-10 0 -10 11v12q0 10 10 10q9 0 9 -8zM661 72v-12q0 -11 -10 -11t-10 11v12q0 10 10 10t10 -10zM646 72v-12q0 -6 5 -6t5 6v12q0 6 -5 6t-5 -6zM671 82q1 0 1 -1l5 -12l5 12l2 1h2q2 0 2 -2v-29q0 -1 -2 -1h-1q-2 0 -2 1l1 23
l-4 -11l-1 -1h-3q-1 0 -1 1l-4 11v-23q0 -1 -1 -1h-2q-1 0 -1 1v29q0 2 1 2h3zM137 5l1 -1v-2q0 -2 -1 -2h-6v-26l-1 -1h-2q-2 0 -2 1v26h-6l-1 2v1q0 2 1 2h17zM146 5q1 -1 1 -2v-9q2 2 5 2q6 0 6 -8v-14q0 -1 -1 -1h-2q-1 0 -1 1v14q0 4 -3 4q-4 0 -4 -4v-14l-1 -1h-2
q-1 0 -1 1v29q0 2 1 2h2zM178 -12v-14q0 -1 -1 -1h-2q-1 0 -1 1q-2 -2 -5 -2q-6 0 -6 7q0 5 6 6l5 2v2q0 3 -3 3t-3 -2t-2 -2h-1q-2 0 -2 2q0 6 8 6q7 0 7 -8zM167 -21q0 -3 3 -3q4 0 4 4v3l-5 -2q-2 0 -2 -2zM187 -4q1 -1 1 -2q0 2 4 2q7 0 7 -8v-14l-1 -1h-2q-1 0 -1 1v14
q0 4 -3 4q-4 0 -4 -4v-14l-1 -1h-2q-1 0 -1 1v20q0 2 1 2h2zM221 -26v-1h-3q0 -1 -1 0l-6 11l-2 -3v-7l-1 -1h-2q-1 0 -1 1v29q0 2 1 2h2q1 -1 1 -2v-16l6 8l2 1h2l1 -2l-6 -7zM232 -24q2 0 2 3q0 2 -2 3l-3 2q-4 3 -4 6q0 6 7 6q6 0 6 -5l-1 -2h-1q-1 0 -2 1q0 2 -2 2
q-3 0 -3 -2q0 -1 2 -3l3 -2q5 -3 5 -6q0 -7 -7 -7q-8 0 -8 8l1 1h2q1 0 1 -2q0 -3 4 -3zM263 5h1l1 -1v-2q0 -1 -1 -1h-1q-3 0 -3 -4v-2h4q1 0 1 -1v-1q0 -2 -1 -2h-4v-17l-1 -1h-2q-1 0 -1 1v17h-1q-2 0 -2 2v1q0 1 2 1h1v2q0 8 7 8zM275 -28q-8 0 -8 8v7q0 9 8 9t8 -9v-7
q0 -8 -8 -8zM272 -13v-7q0 -4 3 -4q4 0 4 4v7q0 5 -4 5q-3 0 -3 -5zM298 -5v-2q0 -1 -1 -1q-5 0 -5 -4v-14l-1 -1h-2q-1 0 -1 1v20q0 2 1 2h2q1 -1 1 -2q2 2 5 2zM325 -26q0 -1 -1 -1h-1q-2 0 -2 1q-2 -2 -4 -2q-8 0 -8 8v14q0 2 2 2h1q2 0 2 -2v-14q0 -4 3 -4q4 0 4 4v14
l1 2h2q1 0 1 -2v-20zM337 -24q3 0 3 3q0 2 -2 3l-4 2q-3 2 -3 6q0 6 6 6t7 -5l-1 -2h-1q-2 0 -2 1q0 2 -3 2q-2 0 -2 -2t2 -3l3 -2q4 -2 4 -6q0 -7 -7 -7t-7 8l1 1h1q2 0 2 -2q0 -3 3 -3zM355 3v-2q0 -1 -2 -1h-2q-1 0 -1 1v2q0 2 1 2h2q2 0 2 -2zM353 -4q1 0 1 -2v-20
q0 -1 -1 -1h-2q-1 0 -1 1v20l1 2h2zM363 -4q1 -1 1 -2q0 2 4 2q7 0 7 -8v-14q0 -1 -1 -1h-2q-1 0 -1 1v14q0 4 -3 4q-4 0 -4 -4v-14l-1 -1h-2q-1 0 -1 1v20q0 2 1 2h2zM396 -29q0 -8 -7 -8q-8 0 -8 7q0 1 1 1h1q2 0 2 -1q0 -3 4 -3q3 0 3 4v3q-2 -2 -4 -2q-7 0 -7 8v8
q0 8 7 8q2 0 4 -2v1l1 1h2l1 -1v-24zM385 -12v-8q0 -4 3 -4q4 0 4 4v8q0 4 -4 4q-3 0 -3 -4zM417 5q1 0 2 -1l5 -12l5 12l1 1h3q2 0 2 -2v-29q0 -1 -2 -1h-2q-1 0 -1 1v23l-4 -11q0 -1 -1 -1h-2q-1 0 -1 1l-5 11l1 -23q0 -1 -2 -1h-1q-2 0 -2 1v29q0 2 2 2h2zM455 -11v-3
q0 -2 -2 -2l-9 -2v-2q0 -4 3 -4q4 0 4 4l2 1h1q1 0 1 -2q0 -7 -8 -7q-7 0 -7 8v8q0 8 8 8q7 0 7 -7zM444 -12v-2l7 1v2q0 3 -3 3q-4 0 -4 -4zM464 5q1 0 1 -2v-23q0 -4 3 -4h1l1 -1v-2q0 -1 -1 -1h-1q-7 0 -7 8v23l1 2h2zM476 5q1 -1 1 -2v-9q2 2 4 2q7 0 7 -8v-8
q0 -8 -7 -8q-2 0 -4 2l-1 -1h-2q-1 0 -1 1v29q0 2 1 2h2zM477 -12v-8q0 -4 4 -4q3 0 3 4v8q0 4 -3 4q-4 0 -4 -4zM501 -28q-8 0 -8 8v7q0 9 8 9q7 0 7 -9v-7q0 -8 -7 -8zM497 -13v-7q0 -4 4 -4q3 0 3 4v7q0 5 -3 5q-4 0 -4 -5zM529 -26l-1 -1h-2q-1 0 -1 1q-2 -2 -5 -2
q-7 0 -7 8v14l1 2h2q1 0 1 -2v-14q0 -4 4 -4t4 4v14q0 2 1 2h2q1 -1 1 -2v-20zM537 -4q1 0 1 -2q2 2 5 2q7 0 7 -8v-14q0 -1 -2 -1h-1q-2 0 -2 1v14q0 4 -3 4q-4 0 -4 -4v-14q0 -1 -1 -1h-2q-1 0 -1 1v20l1 2h2zM566 -5v-2q-1 -1 -2 -1q-4 0 -4 -4v-14q0 -1 -2 -1h-1
q-2 0 -2 1v20q0 2 2 2h1q2 0 2 -2q2 2 4 2zM583 -11v-3q0 -2 -2 -2l-9 -2v-2q0 -4 3 -4q4 0 4 4l1 1h1q2 0 2 -2q0 -7 -8 -7t-8 8v8q0 8 8 8t8 -7zM572 -12v-2l7 1v2q0 3 -4 3q-3 0 -3 -4zM588 -25q0 3 2 3q3 0 3 -3t-3 -3q-2 0 -2 3zM589 -19l-1 23h5l-1 -23h-3zM688 108
v-13h-660v13h660zM688 34v-12h-660v12h660zM101 -12l-36 -22v15h-37v15h37v14zM614 -12l36 22v-14h38v-15h-38v-15zM130 504l24 25v130l-305 -87l87 -47l-88 -101zM155 439q2 0 3 -1l27 -34l-11 38q-1 2 1 3h3q3 1 3 -1l14 -49q0 -2 -2 -3l-5 -1q-1 0 -2 1l-27 34l11 -38
q0 -2 -2 -2l-3 -1h-1t-1 2l-14 48q0 2 2 3zM218 456l3 -1l1 -3q0 -2 -2 -3l-19 -5l4 -16l14 4l3 -1l1 -3q1 -2 -2 -3l-14 -4l4 -16l20 5l2 -1l1 -3q1 -2 -1 -3l-27 -7l-14 53zM256 467l3 -2l1 -3q0 -2 -2 -2l-19 -6l4 -15l15 4l2 -2l1 -3q1 -2 -2 -2l-14 -4l5 -16l19 5l3 -2
l1 -3q0 -2 -2 -2l-27 -7l-14 52zM283 474q15 4 20 -13l5 -19q6 -17 -11 -21l-15 -4l-14 53zM288 426l7 2q9 3 6 12l-5 19q-3 10 -11 8l-8 -2zM331 487q2 1 3 -1l14 -17l3 22l2 2l4 1q2 1 3 -1l13 -49q1 -2 -1 -2l-3 -1q-3 -1 -3 1l-10 38l-2 -19l-1 -2l-4 -1q-2 0 -3 1
l-12 15l12 -37q0 -3 -2 -3l-3 -1q-2 0 -3 2l-13 48q-1 2 2 3zM406 490l5 -20q5 -16 -11 -21q-16 -6 -20 13l-6 19q-4 18 11 22q16 4 21 -13zM381 483l6 -19q3 -11 11 -8q9 2 6 12l-6 20q-3 10 -11 8q-7 -3 -6 -13zM424 513q16 4 21 -11q3 -12 -5 -18l8 -10q3 -3 5 -3l1 1
l3 -2l1 -2q1 -3 -2 -3l-1 -1q-6 -1 -13 6l-9 11l-6 -2l6 -19l-2 -2l-3 -1q-2 -1 -3 2l-14 50zM425 487l6 1q9 3 6 12q-1 8 -10 6l-6 -2zM479 528l3 -2v-3q1 -2 -1 -2l-19 -6l4 -15l14 4l3 -2l1 -3q0 -2 -2 -2l-14 -4l4 -16l19 5l3 -1l1 -3q1 -2 -1 -3l-27 -7l-15 52z
M194 367q2 -2 -1 -3l-1 -1q-3 0 -3 1q-3 6 -9 4q-6 -1 -5 -10l5 -17q1 -8 9 -6q6 1 5 10l1 2l3 1q1 1 2 -1q3 -14 -9 -18q-14 -5 -17 11l-5 16q-4 15 9 18q12 3 16 -7zM203 381q2 0 3 -2l4 -16l14 3l-4 17l1 2l3 1q2 1 2 -1l11 -41l-1 -2l-3 -1q-1 -1 -2 1l-5 19l-14 -4
l5 -19l-1 -2l-3 -1q-2 0 -2 2l-11 41l1 2zM250 393q1 1 2 -1l23 -37l-2 -3l-2 -1q-2 0 -3 1l-6 11l-13 -3v-13q0 -2 -2 -2l-3 -1h-1t-1 2l1 44l1 2zM249 387v-21l10 3zM281 402q12 3 17 -10q1 -10 -4 -14l7 -9q1 -2 4 -2h1l2 -1l1 -3q0 -1 -2 -2h-1q-6 -1 -11 4l-7 10l-5 -1
l5 -16l-2 -3h-2q-2 -1 -3 1l-11 43zM281 380l5 1q8 2 5 10q-1 7 -9 5l-5 -1zM319 412q1 1 2 -1l23 -38l-1 -2l-3 -1q-2 0 -2 1l-7 12l-13 -4v-13q0 -2 -1 -2l-3 -1q-2 0 -2 2v44l2 2zM318 406v-20l10 2zM367 414q0 -1 -1 -2l-2 -1q-2 -1 -3 0q-2 7 -8 5q-8 -3 -5 -11l4 -16
q3 -8 10 -7q7 3 4 10l2 3h2q2 1 3 -1q3 -14 -10 -18q-12 -3 -17 11l-4 17q-4 14 9 17q11 4 16 -7zM394 433l2 -1l1 -3q1 -2 -1 -2l-9 -3l10 -36l-1 -2l-3 -1q-1 -1 -2 1l-10 37l-8 -2l-3 1v2q-1 2 1 3zM425 442l2 -2l1 -2q0 -2 -1 -3l-17 -4l4 -13l12 3l2 -1l1 -3
q1 -1 -1 -2l-13 -3l4 -14l17 5l2 -2l1 -2q0 -2 -2 -2l-22 -6l-13 44zM446 447q12 4 17 -9q3 -10 -5 -15l8 -9q2 -2 4 -2l1 1l2 -2l1 -2q0 -2 -2 -2l-1 -1q-4 -1 -11 5l-7 9l-5 -1l4 -16l-1 -2l-2 -1q-2 -1 -3 1l-11 43zM446 425l5 1q8 3 5 10q-1 7 -9 5l-5 -1zM495 450
q2 -2 -1 -3l-2 -1q-2 0 -3 1q-3 6 -8 3q-5 -1 -5 -6q2 -4 4 -5l13 -3q7 0 9 -8q3 -12 -10 -17q-13 -3 -17 10l2 2l2 1q2 0 3 -1q1 -7 8 -5q6 1 6 8q-2 4 -6 4l-10 3q-7 1 -10 9q-3 11 9 15q13 3 16 -7zM520 433l-1 -3h-2q-2 -1 -3 1l-1 5q-2 4 0 7l3 7q1 2 0 5q-1 5 -7 4
q-5 -1 -3 -8l-1 -2l-3 -1q-2 0 -2 2q-3 12 8 15t15 -8q0 -5 -1 -8l-3 -7v-4zM520 427q3 0 3 -2v-3q1 0 -1 -2l-3 -1q-2 0 -2 2l-1 3q0 2 1 2zM-69 584q2 0 2 -1l17 -36l-3 36q0 2 2 2l3 1q1 1 3 -2l15 -32l-4 40q0 2 2 2l3 1q2 0 2 -2l4 -46l-2 -2l-5 -2q-2 0 -3 1l-13 28
l3 -31l-1 -2l-6 -2q-2 0 -3 2l-20 41l1 3zM-8 601q1 0 2 -1l25 -41l-1 -2l-3 -1q-1 -1 -3 1l-7 12l-14 -4v-14q0 -2 -1 -2l-3 -1q-3 -1 -3 2l1 47l1 2zM-9 593v-21l11 3l-11 19v-1zM19 608q2 1 3 -1l24 -30l-10 34q-1 2 1 2l3 1q2 1 2 -1l13 -44q0 -2 -2 -3l-4 -1q-1 0 -2 1
l-24 31l10 -34q0 -2 -2 -3h-3q-1 -1 -2 1l-12 44q-1 2 1 2zM58 619q1 1 2 -1l24 -30l-10 34q0 2 2 2l3 1q1 1 2 -1l12 -44q1 -2 -1 -3l-4 -1q-2 0 -3 1l-24 30l10 -33q1 -2 -1 -3l-3 -1q-2 0 -2 2l-13 44q0 2 2 2zM106 633q2 0 3 -1l24 -41l-1 -2l-3 -1q-1 0 -2 1l-7 12
l-15 -4l1 -14l-1 -2l-4 -1h-1t-1 2v47l2 2zM105 626v-22l11 3zM21 542q14 3 17 -10q2 -6 -2 -10q7 -1 9 -9q4 -15 -10 -19l-13 -3l-13 47zM21 521l4 1q8 2 7 9q-3 7 -9 4l-6 -1zM27 499l6 1q7 3 6 11q-2 7 -11 5l-6 -2zM47 549q2 0 2 -1l8 -29q4 -12 11 -9q8 2 4 13l-8 29
l2 2l2 1q2 0 3 -1l8 -29q6 -18 -9 -22q-14 -3 -20 14l-7 29l1 2zM82 559q2 0 3 -1l15 -21h1l2 26q0 2 2 2l3 1h1t1 -2l-4 -48q0 -2 -1 -2l-3 -1q-2 0 -2 1v14q-1 0 -2 1l-20 26q-3 3 0 3zM138 537l-2 -3l-2 -1q-2 0 -3 2l-1 5q-2 5 0 8l3 7q1 3 0 6q-1 5 -7 4t-4 -8l-1 -2
l-3 -1q-2 -1 -2 1q-5 12 8 16q12 4 16 -8v-8l-4 -8v-5zM138 531q2 0 2 -2l1 -3q0 -2 -1 -3h-4q-2 -2 -2 1l-1 3q0 2 1 3zM525 337q2 0 2 -1l18 -36l-3 36q-1 2 1 2l3 1q2 0 3 -2l16 -32l-4 40l1 2l4 1h1t1 -2l4 -46l-2 -3l-6 -1q-1 -1 -2 1l-14 29l4 -32l-2 -3l-6 -1
q-1 -1 -2 1l-21 42l1 3zM586 354q16 4 19 -10q2 -10 -4 -16l8 -9q1 -3 4 -3l1 1l3 -2v-2q1 -2 -1 -3h-1q-6 -2 -12 4l-9 11l-5 -2l5 -17l-1 -2l-3 -1q-2 -1 -3 1l-13 47zM587 330l6 2q8 2 5 10q-1 8 -10 6l-5 -2zM616 363q2 0 3 -2l13 -44l-2 -3l-3 -1q-2 0 -2 2l-13 44l2 3
zM651 372l3 -1v-3q1 -2 -1 -2l-9 -3l11 -40l-1 -2l-3 -1q-2 0 -3 1l-11 40l-9 -2l-2 1l-1 3q-1 2 1 2zM685 382l2 -1l1 -3q1 -2 -1 -3l-18 -5l4 -14l13 4l2 -2l1 -2q1 -2 -1 -3l-13 -4l4 -14l17 5l3 -1l1 -3q0 -2 -1 -3l-25 -7l-14 49zM545 278q2 0 3 -1l13 -16l2 20l2 2
l4 1q2 1 3 -1l12 -44q1 -3 -1 -3l-3 -1q-2 0 -3 2l-9 34l-2 -17q0 -2 -1 -2l-3 -1q-2 0 -2 1l-11 14l10 -35q1 -1 -2 -2l-2 -1q-2 -1 -3 2l-12 44q-1 2 1 3zM605 295l3 -2l1 -2q0 -2 -2 -3l-18 -5l5 -14l13 4l2 -2l1 -2q1 -2 -1 -3l-14 -4l5 -14l17 5l3 -2l1 -2q0 -2 -2 -3
l-24 -7l-14 49zM632 258q1 0 3 -2l1 -3q0 -1 -2 -3h-3q-1 -1 -3 1l-1 3q0 1 2 3zM620 299q2 1 3 -2l9 -33l-1 -2l-3 -1q-2 -1 -3 1l-9 34l1 2z" />
    <glyph glyph-name="A" unicode="A" horiz-adv-x="586" 
d="M287 642l-88 -320h190l-84 320h-18zM250 700h88q9 0 12 -10l190 -683q1 -3 -0.5 -5t-3.5 -2h-2h-49q-6 0 -9 10l-72 253h-220l-74 -253q-3 -10 -9 -10h-49h-2t-3 2t-1 5l193 683q3 10 11 10z" />
    <glyph glyph-name="B" unicode="B" horiz-adv-x="510" 
d="M141 642v-245h88q71 0 110.5 31.5t39.5 90.5q0 123 -133 123h-105zM344 374q116 -27 116 -170q0 -85 -51 -144.5t-152 -59.5h-177v700h166q97 0 145.5 -49.5t48.5 -131.5q0 -62 -31 -101t-65 -44zM248 341h-107v-283h116q65 0 103.5 37.5t38.5 106.5q0 79 -39.5 109
t-111.5 30z" />
    <glyph glyph-name="C" unicode="C" horiz-adv-x="522" 
d="M462 545q2 -10 -6 -13l-39 -10q-4 -2 -8.5 0t-5.5 7q-6 56 -40 88t-93 32q-72 0 -105.5 -39t-33.5 -123v-275q0 -84 33.5 -122.5t105.5 -38.5q136 0 136 161q0 9 9 10h42q10 0 10 -10q0 -99 -48 -159t-149 -60q-96 0 -148 60t-52 159v275q0 99 52 159.5t148 60.5
q88 0 134.5 -44.5t57.5 -117.5z" />
    <glyph glyph-name="D" unicode="D" horiz-adv-x="539" 
d="M80 700h192q101 0 149 -60t48 -159v-262q0 -99 -48 -159t-149 -60h-192v700zM272 642h-131v-584h131q136 0 136 161v262q0 161 -136 161z" />
    <glyph glyph-name="E" unicode="E" horiz-adv-x="503" 
d="M80 0v700h353q9 0 10 -9v-40q0 -9 -9 -9h-293v-261h222q9 0 10 -9v-40q0 -9 -9 -9h-223v-265h292q9 0 10 -9v-40q0 -9 -9 -9h-354z" />
    <glyph glyph-name="F" unicode="F" horiz-adv-x="483" 
d="M141 10q-1 -9 -10 -10h-41q-10 0 -10 10v690h333q9 0 10 -9v-40q-1 -9 -10 -9h-272v-261h202q9 0 10 -9v-40q-1 -9 -10 -9h-202v-313z" />
    <glyph glyph-name="G" unicode="G" horiz-adv-x="517" 
d="M457 323v-110q0 -99 -48 -159.5t-149 -60.5q-96 0 -148 60.5t-52 159.5v275q0 100 48.5 159.5t144.5 59.5q88 0 134.5 -44t57.5 -117q2 -10 -6 -13l-39 -10q-12 -3 -14 7q-20 119 -133 119q-71 0 -101.5 -38t-30.5 -123v-275q0 -84 33.5 -123t105.5 -39q136 0 136 162v62
h-151q-9 0 -10 9v39q0 10 10 10h202q10 0 10 -10z" />
    <glyph glyph-name="H" unicode="H" horiz-adv-x="557" 
d="M141 334v-324q0 -9 -9 -10h-42q-10 0 -10 10v680q0 9 9 10h42q10 0 10 -10v-298h275v298q0 9 9 10h42q10 0 10 -10v-680q0 -9 -9 -10h-42q-10 0 -10 10v324h-275z" />
    <glyph glyph-name="I" unicode="I" horiz-adv-x="221" 
d="M141 690v-680q0 -9 -9 -10h-42q-10 0 -10 10v680q0 9 9 10h42q10 0 10 -10z" />
    <glyph glyph-name="J" unicode="J" horiz-adv-x="350" 
d="M55 52q66 0 115 37.5t49 123.5v477q0 9 9 10h42q10 0 10 -10v-477q0 -94 -62.5 -156.5t-162.5 -62.5q-9 0 -10 9v39q0 10 10 10z" />
    <glyph glyph-name="K" unicode="K" horiz-adv-x="545" 
d="M245 395l156 -277q36 -63 73 -63h16q9 0 10 -10v-34q0 -11 -10 -11h-22q-39 0 -66.5 23.5t-60.5 79.5l-139 240l-61 -87v-246q0 -9 -9 -10h-43q-9 0 -9 10v680q0 9 9 10h42q10 0 10 -10v-338l240 338q1 3 3 5t4 3t3.5 1.5t2.5 0.5h1h48q1 0 2.5 -0.5t4.5 -2.5t-1 -7z" />
    <glyph glyph-name="L" unicode="L" horiz-adv-x="428" 
d="M373 0h-293v690q0 9 9 10h42q10 0 10 -10v-632h232q9 0 10 -9v-39q0 -10 -10 -10z" />
    <glyph glyph-name="M" unicode="M" horiz-adv-x="606" 
d="M270 305l-133 322l4 -617q0 -10 -10 -10h-41q-10 0 -10 10v680q0 10 10 10h62q9 0 14 -10l138 -324l136 324q1 3 3 5t4 3t3.5 1.5t2.5 0.5h1h62q10 0 10 -10v-680q0 -10 -10 -10h-41q-10 0 -10 10l5 617l-129 -322q-4 -10 -11 -10h-48q-8 0 -12 10z" />
    <glyph glyph-name="N" unicode="N" horiz-adv-x="566" 
d="M430 73l-5 617q0 10 10 10h41q10 0 10 -10v-680q0 -10 -10 -10h-64q-9 0 -14 10l-262 617l5 -617q0 -10 -10 -10h-41q-10 0 -10 10v680q0 10 10 10h64q9 0 14 -10z" />
    <glyph glyph-name="O" unicode="O" horiz-adv-x="538" 
d="M269 707q102 0 150.5 -60.5t48.5 -159.5v-275q0 -98 -48.5 -158.5t-150.5 -60.5t-150.5 60.5t-48.5 158.5v275q0 99 48.5 159.5t150.5 60.5zM269 649q-66 0 -102 -40t-36 -122v-275q0 -161 138 -161t138 161v275q0 82 -36 122t-102 40z" />
    <glyph glyph-name="P" unicode="P" horiz-adv-x="508" 
d="M141 256v-246q0 -9 -9 -10h-42q-10 0 -10 10v690h157q103 0 152 -56t49 -153v-26q0 -97 -49 -153t-152 -56h-96zM141 642v-328h96q140 0 140 151v26q0 151 -140 151h-96z" />
    <glyph glyph-name="Q" unicode="Q" horiz-adv-x="560" 
d="M269 707q102 0 150.5 -60.5t48.5 -159.5v-275q0 -91 -39 -147q14 -10 35 -10h16q9 0 10 -10v-34q0 -11 -10 -11h-22q-40 0 -69 26q-47 -33 -120 -33q-102 0 -150.5 60.5t-48.5 158.5v275q0 99 48.5 159.5t150.5 60.5zM333 103l-24 42q-2 5 0 7t6 2l4 1h38q10 0 14 -7
l17 -31q19 40 19 95v275q0 82 -36 122t-102 40t-102 -40t-36 -122v-275q0 -161 138 -161q50 0 82 22q-9 13 -18 30z" />
    <glyph glyph-name="R" unicode="R" horiz-adv-x="542" 
d="M142 291v-281q0 -9 -9 -10h-42q-10 0 -10 10v690h141q117 0 170 -51.5t53 -137.5v-21q0 -155 -130 -191l89 -181q36 -63 73 -63h10q9 0 10 -10v-34q0 -11 -10 -11h-16q-39 0 -66.5 23t-60.5 80l-90 188h-112zM142 642v-293h89q78 0 115.5 30.5t37.5 110.5v21
q0 131 -157 131h-85z" />
    <glyph glyph-name="S" unicode="S" horiz-adv-x="486" 
d="M168 432l182 -96q44 -23 67.5 -64t23.5 -90q0 -83 -53.5 -136t-146.5 -53q-25 0 -50.5 5.5t-52.5 20t-47.5 36t-33.5 56t-13 78.5q0 9 10 10h42q9 0 9 -10q0 -76 40 -107t96 -31q69 0 104 40t35 91q0 74 -77 114l-153 78q-98 50 -98 165q0 78 54 123t135 45
q88 0 134.5 -44t57.5 -117q2 -10 -6 -13l-39 -10q-12 -4 -14 7q-13 116 -133 116q-66 0 -97 -33t-31 -77q0 -75 55 -104z" />
    <glyph glyph-name="T" unicode="T" horiz-adv-x="481" 
d="M431 642h-160v-632q0 -9 -9 -10h-42q-10 0 -10 10v632h-160q-9 0 -10 9v39q0 10 10 10h381q9 0 10 -9v-39q0 -10 -10 -10z" />
    <glyph glyph-name="U" unicode="U" horiz-adv-x="524" 
d="M262 -7q-101 0 -149 71.5t-48 182.5v443q0 9 10 10h42q9 0 9 -10v-443q0 -196 136 -196t136 196v443q0 9 9 10h42q10 0 10 -10v-443q0 -111 -48 -182.5t-149 -71.5z" />
    <glyph glyph-name="V" unicode="V" horiz-adv-x="535" 
d="M274 52l153 638q3 10 11 10h49l6 -2q3 -3 1 -8l-170 -680q-3 -10 -12 -10h-89q-9 0 -11 10l-171 680q-3 9 7 10h45q8 0 11 -10l160 -638h10z" />
    <glyph glyph-name="W" unicode="W" horiz-adv-x="753" 
d="M354 648h45q8 0 11 -10l113 -586h14l106 638q3 10 11 10h46l6 -2q3 -3 1 -8l-121 -680q-2 -10 -11 -10h-90q-9 0 -12 10l-97 525l-96 -525q-2 -10 -12 -10h-90q-9 0 -11 10l-121 680q-3 9 7 10h46q8 0 11 -10l106 -638h14l113 586q3 10 11 10z" />
    <glyph glyph-name="X" unicode="X" horiz-adv-x="571" 
d="M320 376l204 -366q5 -10 -7 -10h-46q-8 0 -13 10l-174 312l-171 -312q-5 -10 -13 -10h-46q-12 0 -7 10l204 373l-169 307q-5 10 7 10h46q8 0 13 -10l139 -254l139 254q5 10 13 10h46q12 0 7 -10z" />
    <glyph glyph-name="Y" unicode="Y" horiz-adv-x="539" 
d="M235 225l-188 465q-4 10 5 10h48q8 0 11 -10l162 -408h10l145 408q3 10 11 10h48q9 0 5 -10l-245 -680q-3 -10 -11 -10h-47q-9 0 -5 10l74 205h-12q-7 0 -11 10z" />
    <glyph glyph-name="Z" unicode="Z" horiz-adv-x="537" 
d="M459 631l-327 -573h330q9 0 10 -9v-40q-1 -9 -10 -9h-387q-4 0 -6.5 2t-2.5 4l-1 3v41q0 7 3 13l328 579h-321q-9 0 -10 9v40q1 9 10 9h378q9 -1 9 -10v-46q0 -7 -3 -13z" />
    <glyph glyph-name="bracketleft" unicode="[" horiz-adv-x="268" 
d="M88 740v-894h85q9 0 10 -10v-39q0 -9 -10 -9h-141v1010h141q9 0 10 -9v-39q0 -10 -10 -10h-85z" />
    <glyph glyph-name="backslash" unicode="\" horiz-adv-x="290" 
d="M220 -27l-254 752q-3 10 7 10h37q7 0 10 -8l254 -752q3 -10 -7 -10h-37q-7 0 -10 8z" />
    <glyph glyph-name="bracketright" unicode="]" horiz-adv-x="252" 
d="M127 -154v894h-85q-9 0 -10 10v39q0 9 10 9h141v-1010h-141q-9 0 -10 9v39q0 10 10 10h85z" />
    <glyph glyph-name="asciicircum" unicode="^" horiz-adv-x="833" 
 />
    <glyph glyph-name="underscore" unicode="_" horiz-adv-x="526" 
d="M45 -25h436q9 0 10 -9v-31q0 -10 -10 -10h-436q-9 0 -10 9v31q0 10 10 10z" />
    <glyph glyph-name="a" unicode="a" horiz-adv-x="431" 
d="M192 -7q-69 0 -108 33.5t-39 88.5q0 59 27 96t91 53l145 34v55q-2 43 -29 70.5t-70 27.5q-44 0 -68.5 -23t-24.5 -63q0 -2 -1.5 -4t-2.5 -3h-2h-48q-5 2 -5 7q0 64 43 103t109 39t111.5 -44t45.5 -126v-327q0 -9 -9 -10h-39q-10 0 -10 10v35q-39 -52 -116 -52zM192 49
q50 0 83 35t33 81v73l-139 -32q-66 -15 -66 -85q0 -35 24 -53.5t65 -18.5z" />
    <glyph glyph-name="b" unicode="b" horiz-adv-x="459" 
d="M128 45v-35q0 -9 -9 -10h-39q-10 0 -10 10v680q0 9 9 10h39q10 0 10 -10v-225q14 20 42.5 31t58.5 11q73 0 119 -47t46 -121v-183q0 -70 -41.5 -116.5t-108.5 -46.5q-77 0 -116 52zM336 156v183q0 48 -28.5 79.5t-78.5 31.5q-40 0 -71 -27t-31 -84v-188q0 -48 30.5 -75
t81.5 -27q40 0 67.5 31t29.5 76z" />
    <glyph glyph-name="c" unicode="c" horiz-adv-x="421" 
d="M313 156q0 5 2.5 7.5t4.5 2.5l3 1h35q13 0 13 -13q0 -65 -40.5 -113t-117.5 -48q-76 0 -119.5 45t-43.5 135v150q0 184 163 184q130 0 149 -122q2 -10 -6 -13l-37 -10q-9 -3 -11 8q-4 32 -27 56.5t-68 24.5q-105 0 -105 -130v-148q0 -55 27.5 -89.5t77.5 -34.5
q49 0 74.5 33t25.5 74z" />
    <glyph glyph-name="d" unicode="d" horiz-adv-x="443" 
d="M373 690v-680q0 -9 -10 -10h-39q-9 0 -9 10v35q-39 -52 -112 -52q-67 0 -110 46t-43 116v183q0 74 40.5 121.5t116.5 47.5q31 0 63 -12.5t45 -33.5v229q0 9 9 10h40q9 0 9 -10zM315 155v183q0 59 -32.5 86t-75.5 27q-49 0 -74 -30t-25 -83v-183q0 -45 27 -75.5t68 -30.5
q51 0 81.5 27t30.5 79z" />
    <glyph glyph-name="e" unicode="e" horiz-adv-x="452" 
d="M382 155q5 -2 5 -7q0 -73 -44 -114t-117 -41q-71 0 -116 44t-45 111v192q0 73 46 120t123 47q65 0 109 -38.5t44 -95.5v-89q0 -32 -34 -39l-230 -43v-54q2 -44 29.5 -71.5t73.5 -27.5q49 0 76.5 26.5t27.5 72.5q0 2 1.5 4t2.5 2l2 1h46zM329 298v73q0 38 -27.5 59
t-72.5 21q-55 0 -80.5 -30.5t-25.5 -80.5v-81z" />
    <glyph glyph-name="f" unicode="f" horiz-adv-x="301" 
d="M174 435v-425q0 -9 -9 -10h-39q-10 0 -10 10v425h-41q-9 0 -10 9v37q0 10 10 10h41v57q0 72 39 112t115 40h21q9 0 10 -9v-37q0 -10 -10 -10h-21q-52 0 -74 -23t-22 -73v-57h111q9 0 10 -9v-37q0 -10 -10 -10h-111z" />
    <glyph glyph-name="g" unicode="g" horiz-adv-x="482" 
d="M345 155v183q0 59 -32.5 86t-75.5 27q-49 0 -74 -30t-25 -83v-183q0 -45 27 -75.5t68 -30.5q51 0 81.5 27t30.5 79zM345 -53v98q-39 -52 -112 -52q-67 0 -110 46t-43 116v183q0 74 40.5 121.5t116.5 47.5q31 0 63 -12.5t45 -33.5v36q0 9 9 10h40q9 0 9 -10v-550
q0 -76 -43 -117.5t-119 -41.5t-117.5 43t-41.5 119q0 9 9 10h37q10 0 10 -10q0 -106 103 -106q104 0 104 103z" />
    <glyph glyph-name="h" unicode="h" 
d="M133 337v-327q0 -9 -10 -10h-38q-10 0 -10 10v680q0 9 9 10h39q10 0 10 -10v-223q24 40 106 40q74 0 115 -43t41 -127v-327q0 -9 -9 -10h-39q-10 0 -10 10v327q0 48 -25 81t-73 33q-50 0 -78 -30.5t-28 -83.5z" />
    <glyph glyph-name="i" unicode="i" horiz-adv-x="221" 
d="M81 10v480q0 9 9 10h39q10 0 10 -10v-480q0 -9 -9 -10h-39q-10 0 -10 10zM146 690v-65q0 -9 -9 -10h-52q-10 0 -10 10v65q0 9 9 10h52q10 0 10 -10z" />
    <glyph glyph-name="j" unicode="j" horiz-adv-x="247" 
d="M167 690v-65q0 -9 -9 -10h-52q-10 0 -10 10v65q0 9 9 10h52q10 0 10 -10zM0 -212q-9 0 -10 9v37q0 10 10 10q104 0 104 103v543q0 9 9 10h39q10 0 10 -10v-543q0 -76 -43 -117.5t-119 -41.5z" />
    <glyph glyph-name="k" unicode="k" horiz-adv-x="421" 
d="M226 309l179 -302q5 -7 -6 -7h-45q-5 0 -9 6l-157 261l-60 -74v-183q0 -9 -9 -10h-40q-9 0 -9 10v680q0 9 9 10h39q10 0 10 -10v-413l184 217q2 3 4.5 4.5t4.5 1.5h2h49q12 0 6 -7z" />
    <glyph glyph-name="l" unicode="l" horiz-adv-x="260" 
d="M230 49q9 0 10 -9v-37q0 -10 -10 -10q-158 0 -158 163v534q0 9 9 10h39q10 0 10 -10v-534q0 -56 22.5 -81.5t77.5 -25.5z" />
    <glyph glyph-name="m" unicode="m" horiz-adv-x="666" 
d="M229 507q82 0 114 -48q33 48 103 48q67 0 111 -37.5t44 -130.5v-329q0 -9 -10 -10h-38q-10 0 -10 10v329q0 52 -23.5 82t-73.5 30q-32 0 -53.5 -22.5t-21.5 -58.5v-360q0 -9 -10 -10h-36q-10 0 -10 10v360q0 33 -22 57t-65 24q-55 0 -77.5 -32.5t-22.5 -79.5v-329
q0 -10 -11 -10h-37q-10 0 -10 10v480q0 9 9 10h40q9 0 9 -10v-29q13 21 40.5 33.5t60.5 12.5z" />
    <glyph glyph-name="n" unicode="n" horiz-adv-x="456" 
d="M70 10v480q0 9 9 10h40q9 0 9 -10v-29q33 46 106 46q70 0 113.5 -44.5t43.5 -125.5v-327q0 -9 -10 -10h-38q-10 0 -10 10v327q0 114 -102 114q-55 0 -79 -33.5t-24 -80.5v-327q0 -10 -11 -10h-37q-10 0 -10 10z" />
    <glyph glyph-name="o" unicode="o" horiz-adv-x="422" 
d="M211 49q45 0 74 33t29 90v150q0 129 -103 129t-103 -129v-150q0 -57 29 -90t74 -33zM211 507q161 0 161 -185v-149q0 -85 -40 -132.5t-121 -47.5t-121 47.5t-40 132.5v149q0 185 161 185z" />
    <glyph glyph-name="p" unicode="p" horiz-adv-x="459" 
d="M128 45v-247q0 -9 -9 -10h-39q-10 0 -10 10v692q0 9 9 10h39q10 0 10 -10v-39q8 22 43 39t69 17q75 0 114.5 -47t39.5 -123v-173q0 -70 -44 -120.5t-108 -50.5q-75 0 -114 52zM336 164v173q0 54 -27 84t-77 30q-44 0 -74 -31t-30 -83v-172q0 -48 29 -82t78 -34
q42 0 71.5 33.5t29.5 81.5z" />
    <glyph glyph-name="q" unicode="q" horiz-adv-x="441" 
d="M313 165v172q0 58 -28 86t-73 28q-53 0 -78.5 -31.5t-25.5 -82.5v-173q0 -50 26 -82.5t71 -32.5q108 0 108 116zM371 490v-692q0 -9 -10 -10h-39q-9 0 -9 10v247q-39 -52 -116 -52q-66 0 -106.5 50t-40.5 121v173q0 76 40.5 123t121.5 47q33 0 61 -13t40 -33v29
q0 9 10 10h39q9 0 9 -10z" />
    <glyph glyph-name="r" unicode="r" horiz-adv-x="266" 
d="M236 449q-108 0 -108 -115v-324q0 -10 -11 -10h-37q-10 0 -10 10v480q0 9 10 10h37q11 0 11 -10v-29q27 46 108 46q9 0 10 -10v-37q0 -11 -10 -11z" />
    <glyph glyph-name="s" unicode="s" horiz-adv-x="390" 
d="M287 380q-9 71 -88 71q-50 0 -69 -24t-19 -48q0 -42 37 -61l121 -66q81 -44 81 -130q0 -55 -40 -92t-107 -37q-43 0 -76.5 16t-51 40t-26.5 48.5t-9 46.5q0 9 9 10h40q10 0 10 -10q0 -41 29 -68t77 -27q35 0 61.5 21t26.5 52q0 51 -58 82l-109 58q-37 19 -54.5 51.5
t-17.5 63.5q0 29 12 56.5t46.5 50.5t86.5 23q59 0 99 -30t44 -88q0 -10 -8 -12l-36 -6q-10 -1 -11 9z" />
    <glyph glyph-name="t" unicode="t" horiz-adv-x="307" 
d="M248 0h-6q-77 0 -115.5 35.5t-38.5 116.5v283h-43q-9 0 -10 9v37q0 10 10 10h43v179q0 9 9 10h39q10 0 10 -10v-179h105q9 0 10 -9v-37q0 -10 -10 -10h-105v-283q0 -57 21.5 -76t74.5 -20h6q9 0 10 -9v-37q0 -10 -10 -10z" />
    <glyph glyph-name="u" unicode="u" horiz-adv-x="451" 
d="M386 490v-480q0 -10 -11 -10h-37q-10 0 -10 10v35q-27 -52 -110 -52q-68 0 -110.5 42.5t-42.5 129.5v325q0 9 9 10h40q9 0 9 -10v-325q0 -116 101 -116q15 0 30.5 4.5t33 16t29 36t11.5 59.5v325q0 9 9 10h40q9 0 9 -10z" />
    <glyph glyph-name="v" unicode="v" horiz-adv-x="395" 
d="M218 0h-44q-8 0 -10 10l-139 480q-3 9 7 10h43q8 0 10 -10l111 -400l109 400q2 9 10 10h43l6 -2q3 -3 1 -8l-137 -480q-2 -9 -10 -10z" />
    <glyph glyph-name="w" unicode="w" horiz-adv-x="626" 
d="M351 490l104 -390l78 390q2 9 10 10h45l5 -2q3 -3 2 -8l-110 -480q-2 -9 -10 -10h-41q-8 0 -10 10l-111 423l-110 -423q-2 -9 -10 -10h-41q-8 0 -10 10l-111 480q-3 9 7 10h45q8 0 10 -10l80 -390l102 390q3 10 11 10h54q8 0 11 -10z" />
    <glyph glyph-name="x" unicode="x" horiz-adv-x="373" 
d="M295 10l-109 194l-109 -194q-5 -10 -13 -10h-45q-12 0 -7 10l142 251l-128 229q-5 10 7 10h46q8 0 13 -10l96 -173l93 173q5 10 13 10h46q12 0 7 -10l-126 -229l140 -251q5 -10 -7 -10h-46q-8 0 -13 10z" />
    <glyph glyph-name="y" unicode="y" horiz-adv-x="398" 
d="M151 10l-140 480q-3 9 7 10h45q7 0 10 -10l117 -427h8l118 427q2 9 10 10h44l6 -2q3 -3 1 -8l-171 -584q-15 -50 -38.5 -77.5t-42.5 -34t-43 -6.5h-11q-10 0 -10 11v35q0 10 10 10q39 0 58 21q14 16 23 43l29 92h-19q-7 0 -11 10z" />
    <glyph glyph-name="z" unicode="z" horiz-adv-x="434" 
d="M118 56h257q9 0 10 -9v-38q-1 -9 -10 -9h-321q-4 0 -6.5 2t-3.5 4v3v33q0 7 3 13l265 389h-245q-9 0 -10 9v38q1 9 10 9h299q9 -1 9 -10v-48q0 -7 -3 -13z" />
    <glyph glyph-name="quoteleft" unicode="&#x2018;" horiz-adv-x="144" 
d="M29 589l30 161q2 9 9 10h27q10 0 10 -10v-165q0 -9 -9 -10h-57q-13 0 -10 14z" />
    <glyph glyph-name="quoteright" unicode="&#x2019;" horiz-adv-x="144" 
d="M119 746l-30 -161q-2 -9 -9 -10h-27q-10 0 -10 10v165q0 9 9 10h57q13 0 10 -14z" />
    <glyph glyph-name="minus" unicode="&#x2212;" horiz-adv-x="472" 
d="M94 296h276q9 0 10 -9v-37q0 -10 -10 -10h-276q-9 0 -10 9v37q0 10 10 10z" />
    <glyph glyph-name="_0031" horiz-adv-x="602" 
d="M275 707q43 0 74.5 -14t48.5 -38t25 -51t8 -56v-392q0 -56 22.5 -81.5t77.5 -25.5q9 0 10 -9v-37q0 -10 -10 -10q-158 0 -158 163v392q0 50 -25.5 78.5t-72.5 28.5q-52 0 -76.5 -29t-24.5 -78v-57h111q9 0 10 -9v-37q0 -10 -10 -10h-111v-425q0 -9 -9 -10h-39
q-10 0 -10 10v425h-41q-9 0 -10 9v37q0 10 10 10h41v57q0 69 42 114t117 45z" />
    <glyph glyph-name="_0030" horiz-adv-x="493" 
d="M174 435v-425q0 -9 -9 -10h-39q-10 0 -10 10v425h-41q-9 0 -10 9v37q0 10 10 10h41v57q0 72 39 112t115 40h21q9 0 10 -9v-37q0 -10 -10 -10h-21q-52 0 -74 -23t-22 -73v-57h196q9 0 10 -9v-472q0 -9 -9 -10h-39q-10 0 -10 10v425h-148z" />
    </font>
</defs>
</svg>
